<svg viewBox="0 0 101 93" version="1.1" xmlns="http://www.w3.org/2000/svg" xmlns:xlink="http://www.w3.org/1999/xlink">
<title>Group 15</title> 
<desc>Created with Sketch.</desc> 
<g id="Finale_Popups-and-Sitckybars-Page" stroke="none" stroke-width="1" fill="none" fill-rule="evenodd"> 
<g id="Popups-&amp;-stickybars_v7" transform="translate(-823.000000, -2035.000000)"> <g id="Group-15" transform="translate(823.000000, 2035.000000)"> <g id="Group-21" transform="translate(0.948988, 0.240301)"> <g id="Group-9" transform="translate(2.804784, 12.996106)" stroke="#0033FF" stroke-width="3.16932"> <g id="Group-7"> <path d="M29.7473879,31.0810886 L63.4875796,31.0810886" id="Line-13" stroke-linecap="square"></path> <path d="M31.7282445,38.5656283 L31.7282445,48.4153637 L61.4001313,48.4153637 L61.4001313,38.5656283 L31.7282445,38.5656283 Z" id="Rectangle-23"></path> <path d="M1.078,1.45236269 L93.1372165,1.45236269" id="Line" stroke-linecap="square"></path> </g> </g> <rect id="Rectangle-19" stroke="#0033FF" stroke-width="3.16932" x="1.58466" y="1.58466" width="96.00668" height="89.53868" rx="2.156"></rect> <path d="M20.9865935,30.3112747 C20.3138334,30.3112747 19.7684535,30.8566546 19.7684535,31.5294147 L19.7684535,72.2785107 C19.7684535,72.9512709 20.3138334,73.4966507 20.9865935,73.4966507 L77.7513493,73.4966507 C78.4241095,73.4966507 78.9694893,72.9512709 78.9694893,72.2785107 L78.9694893,31.5294147 C78.9694893,30.8566546 78.4241095,30.3112747 77.7513493,30.3112747 L20.9865935,30.3112747 Z" id="Rectangle-22" stroke="#0033FF" stroke-width="3.16932"></path> <g id="Group-20" transform="translate(10.998304, 24.262845) rotate(-27.000000) translate(-10.998304, -24.262845) translate(7.078304, 18.382845)" fill="#0033FF"> <polygon id="Triangle-2" points="3.64305094 0 7.28610189 7.28610189 0 7.28610189"></polygon> <polygon id="Rectangle-24" points="2.42870063 6.07175157 4.85740126 6.07175157 4.85740126 10.9291528 2.42870063 10.9291528"></polygon> </g> </g> <g id="Group-14" transform="translate(6.000000, 6.000000)"> <g id="Group-7" transform="translate(66.351972, 20.357919)"> <g id="Group" transform="translate(0.308602, 0.353358)"> <polygon id="Stroke-8" fill="#0033FF" points="0.983386598 10.0189617 10.9781833 10.0189617 10.9781833 0.0241649677 0.983386598 0.0241649677"></polygon> <g id="Group-6" transform="translate(2.365440, 2.522240)" stroke="#FFFFFF" stroke-linecap="square" stroke-width="1.54"> <path d="M5.2995339,0.61880401 L1.95802997,3.96030795" id="Stroke-6"></path> <path d="M1.95864876,0.61880401 L5.3001527,3.96030795" id="Stroke-7"></path> </g> </g> </g> <g id="Group-24" transform="translate(0.400527, 0.658198)" fill="#0033FF" fill-rule="nonzero"> <path d="M3.49772128,1.81388154 C3.49772128,2.77877792 2.71558531,3.56091388 1.75118021,3.56091388 C0.786283825,3.56091388 0.00414785124,2.77877792 0.00414785124,1.81388154 C0.00414785124,0.849476437 0.786283825,0.067340466 1.75118021,0.067340466 C2.71558531,0.067340466 3.49772128,0.849476437 3.49772128,1.81388154" id="Fill-6"></path> <path d="M8.7189723,1.81388154 C8.7189723,2.77877792 7.93683632,3.56091388 6.97193993,3.56091388 C6.00704354,3.56091388 5.22539886,2.77877792 5.22539886,1.81388154 C5.22539886,0.849476437 6.00704354,0.067340466 6.97193993,0.067340466 C7.93683632,0.067340466 8.7189723,0.849476437 8.7189723,1.81388154" id="Fill-8"></path> <path d="M13.9402233,1.81388154 C13.9402233,2.77877792 13.1580873,3.56091388 12.1931909,3.56091388 C11.2287858,3.56091388 10.4466499,2.77877792 10.4466499,1.81388154 C10.4466499,0.849476437 11.2287858,0.067340466 12.1931909,0.067340466 C13.1580873,0.067340466 13.9402233,0.849476437 13.9402233,1.81388154" id="Fill-10"></path> </g> </g> </g> </g> </g> </svg>